<?xml version="1.0" encoding="UTF-8" standalone="no"?>
<!DOCTYPE svg PUBLIC "-//W3C//DTD SVG 1.1//EN"
 "http://www.w3.org/Graphics/SVG/1.1/DTD/svg11.dtd">
<!-- Generated by graphviz version 2.47.0 (20210316.0004)
 -->
<!-- Title: dependencies Pages: 1 -->
<svg width="2628pt" height="211pt"
 viewBox="0.00 0.00 2628.00 211.00" xmlns="http://www.w3.org/2000/svg" xmlns:xlink="http://www.w3.org/1999/xlink">
<g id="graph0" class="graph" transform="scale(1 1) rotate(0) translate(4 207)">
<title>dependencies</title>
<polygon fill="white" stroke="transparent" points="-4,4 -4,-207 2624,-207 2624,4 -4,4"/>
<text text-anchor="start" x="1289.01" y="-42.4" font-family="sans-serif" font-weight="bold" font-size="14.00">Legend</text>
<polygon fill="#ffffb3" stroke="transparent" points="1076,-10 1076,-30 1096,-30 1096,-10 1076,-10"/>
<text text-anchor="start" x="1099.63" y="-15.4" font-family="sans-serif" font-size="14.00"> &#160;Declarations</text>
<polygon fill="#8dd3c7" stroke="transparent" points="1189,-10 1189,-30 1209,-30 1209,-10 1189,-10"/>
<text text-anchor="start" x="1212.73" y="-15.4" font-family="sans-serif" font-size="14.00"> &#160;Module</text>
<polygon fill="#80b1d3" stroke="transparent" points="1275,-10 1275,-30 1295,-30 1295,-10 1275,-10"/>
<text text-anchor="start" x="1298.78" y="-15.4" font-family="sans-serif" font-size="14.00"> &#160;Bootstrap</text>
<polygon fill="#fdb462" stroke="transparent" points="1372,-10 1372,-30 1392,-30 1392,-10 1372,-10"/>
<text text-anchor="start" x="1395.67" y="-15.4" font-family="sans-serif" font-size="14.00"> &#160;Providers</text>
<polygon fill="#fb8072" stroke="transparent" points="1468,-10 1468,-30 1488,-30 1488,-10 1468,-10"/>
<text text-anchor="start" x="1491.73" y="-15.4" font-family="sans-serif" font-size="14.00"> &#160;Exports</text>
<g id="clust1" class="cluster">
<title>cluster_ContentModule</title>
<polygon fill="none" stroke="black" stroke-dasharray="1,5" points="8,-70 8,-195 2612,-195 2612,-70 8,-70"/>
</g>
<g id="clust19" class="cluster">
<title>cluster_ContentModule_imports</title>
<polygon fill="none" stroke="black" points="2438,-78 2438,-130 2604,-130 2604,-78 2438,-78"/>
</g>
<g id="clust2" class="cluster">
<title>cluster_ContentModule_declarations</title>
<polygon fill="none" stroke="black" points="16,-78 16,-130 2430,-130 2430,-78 16,-78"/>
</g>
<!-- CharacterComponent -->
<g id="node1" class="node">
<title>CharacterComponent</title>
<polygon fill="#ffffb3" stroke="black" points="2421.74,-122 2286.26,-122 2286.26,-86 2421.74,-86 2421.74,-122"/>
<text text-anchor="middle" x="2354" y="-99.8" font-family="Times,serif" font-size="14.00">CharacterComponent</text>
</g>
<!-- ContentModule -->
<g id="node17" class="node">
<title>ContentModule</title>
<polygon fill="#8dd3c7" stroke="black" points="1246.88,-187 1243.88,-191 1222.88,-191 1219.88,-187 1143.12,-187 1143.12,-151 1246.88,-151 1246.88,-187"/>
<text text-anchor="middle" x="1195" y="-164.8" font-family="Times,serif" font-size="14.00">ContentModule</text>
</g>
<!-- CharacterComponent&#45;&gt;ContentModule -->
<g id="edge1" class="edge">
<title>CharacterComponent&#45;&gt;ContentModule</title>
<path fill="none" stroke="black" d="M2354,-122.16C2354,-144.35 2354,-179 2354,-179 2354,-179 1257.05,-179 1257.05,-179"/>
<polygon fill="black" stroke="black" points="1257.05,-175.5 1247.05,-179 1257.05,-182.5 1257.05,-175.5"/>
</g>
<!-- CharacterDetailsComponent -->
<g id="node2" class="node">
<title>CharacterDetailsComponent</title>
<polygon fill="#ffffb3" stroke="black" points="2267.89,-122 2092.11,-122 2092.11,-86 2267.89,-86 2267.89,-122"/>
<text text-anchor="middle" x="2180" y="-99.8" font-family="Times,serif" font-size="14.00">CharacterDetailsComponent</text>
</g>
<!-- CharacterDetailsComponent&#45;&gt;ContentModule -->
<g id="edge2" class="edge">
<title>CharacterDetailsComponent&#45;&gt;ContentModule</title>
<path fill="none" stroke="black" d="M2180,-122.28C2180,-143.32 2180,-175 2180,-175 2180,-175 1256.92,-175 1256.92,-175"/>
<polygon fill="black" stroke="black" points="1256.92,-171.5 1246.92,-175 1256.92,-178.5 1256.92,-171.5"/>
</g>
<!-- CharactersListComponent -->
<g id="node3" class="node">
<title>CharactersListComponent</title>
<polygon fill="#ffffb3" stroke="black" points="2074.46,-122 1911.54,-122 1911.54,-86 2074.46,-86 2074.46,-122"/>
<text text-anchor="middle" x="1993" y="-99.8" font-family="Times,serif" font-size="14.00">CharactersListComponent</text>
</g>
<!-- CharactersListComponent&#45;&gt;ContentModule -->
<g id="edge3" class="edge">
<title>CharactersListComponent&#45;&gt;ContentModule</title>
<path fill="none" stroke="black" d="M1993,-122.31C1993,-142.15 1993,-171 1993,-171 1993,-171 1257.05,-171 1257.05,-171"/>
<polygon fill="black" stroke="black" points="1257.05,-167.5 1247.05,-171 1257.05,-174.5 1257.05,-167.5"/>
</g>
<!-- ComicComponent -->
<g id="node4" class="node">
<title>ComicComponent</title>
<polygon fill="#ffffb3" stroke="black" points="1893.17,-122 1774.83,-122 1774.83,-86 1893.17,-86 1893.17,-122"/>
<text text-anchor="middle" x="1834" y="-99.8" font-family="Times,serif" font-size="14.00">ComicComponent</text>
</g>
<!-- ComicComponent&#45;&gt;ContentModule -->
<g id="edge4" class="edge">
<title>ComicComponent&#45;&gt;ContentModule</title>
<path fill="none" stroke="black" d="M1834,-122.22C1834,-140.83 1834,-167 1834,-167 1834,-167 1257.02,-167 1257.02,-167"/>
<polygon fill="black" stroke="black" points="1257.02,-163.5 1247.02,-167 1257.02,-170.5 1257.02,-163.5"/>
</g>
<!-- ComicDetailsComponent -->
<g id="node5" class="node">
<title>ComicDetailsComponent</title>
<polygon fill="#ffffb3" stroke="black" points="1757.32,-122 1598.68,-122 1598.68,-86 1757.32,-86 1757.32,-122"/>
<text text-anchor="middle" x="1678" y="-99.8" font-family="Times,serif" font-size="14.00">ComicDetailsComponent</text>
</g>
<!-- ComicDetailsComponent&#45;&gt;ContentModule -->
<g id="edge5" class="edge">
<title>ComicDetailsComponent&#45;&gt;ContentModule</title>
<path fill="none" stroke="black" d="M1678,-122.02C1678,-139.37 1678,-163 1678,-163 1678,-163 1257.15,-163 1257.15,-163"/>
<polygon fill="black" stroke="black" points="1257.15,-159.5 1247.15,-163 1257.15,-166.5 1257.15,-159.5"/>
</g>
<!-- ComicsListComponent -->
<g id="node6" class="node">
<title>ComicsListComponent</title>
<polygon fill="#ffffb3" stroke="black" points="1580.89,-122 1435.11,-122 1435.11,-86 1580.89,-86 1580.89,-122"/>
<text text-anchor="middle" x="1508" y="-99.8" font-family="Times,serif" font-size="14.00">ComicsListComponent</text>
</g>
<!-- ComicsListComponent&#45;&gt;ContentModule -->
<g id="edge6" class="edge">
<title>ComicsListComponent&#45;&gt;ContentModule</title>
<path fill="none" stroke="black" d="M1508,-122.01C1508,-138.05 1508,-159 1508,-159 1508,-159 1257.04,-159 1257.04,-159"/>
<polygon fill="black" stroke="black" points="1257.04,-155.5 1247.04,-159 1257.04,-162.5 1257.04,-155.5"/>
</g>
<!-- ConcatThumbnailPipe -->
<g id="node7" class="node">
<title>ConcatThumbnailPipe</title>
<polygon fill="#ffffb3" stroke="black" points="1416.98,-122 1275.02,-122 1275.02,-86 1416.98,-86 1416.98,-122"/>
<text text-anchor="middle" x="1346" y="-99.8" font-family="Times,serif" font-size="14.00">ConcatThumbnailPipe</text>
</g>
<!-- ConcatThumbnailPipe&#45;&gt;ContentModule -->
<g id="edge7" class="edge">
<title>ConcatThumbnailPipe&#45;&gt;ContentModule</title>
<path fill="none" stroke="black" d="M1346,-122.12C1346,-136.78 1346,-155 1346,-155 1346,-155 1256.97,-155 1256.97,-155"/>
<polygon fill="black" stroke="black" points="1256.97,-151.5 1246.97,-155 1256.97,-158.5 1256.97,-151.5"/>
</g>
<!-- CreatorComponent -->
<g id="node8" class="node">
<title>CreatorComponent</title>
<polygon fill="#ffffb3" stroke="black" points="1256.81,-122 1133.19,-122 1133.19,-86 1256.81,-86 1256.81,-122"/>
<text text-anchor="middle" x="1195" y="-99.8" font-family="Times,serif" font-size="14.00">CreatorComponent</text>
</g>
<!-- CreatorComponent&#45;&gt;ContentModule -->
<g id="edge8" class="edge">
<title>CreatorComponent&#45;&gt;ContentModule</title>
<path fill="none" stroke="black" d="M1195,-122.11C1195,-122.11 1195,-140.99 1195,-140.99"/>
<polygon fill="black" stroke="black" points="1191.5,-140.99 1195,-150.99 1198.5,-140.99 1191.5,-140.99"/>
</g>
<!-- CreatorDetailsComponent -->
<g id="node9" class="node">
<title>CreatorDetailsComponent</title>
<polygon fill="#ffffb3" stroke="black" points="1115.46,-122 952.54,-122 952.54,-86 1115.46,-86 1115.46,-122"/>
<text text-anchor="middle" x="1034" y="-99.8" font-family="Times,serif" font-size="14.00">CreatorDetailsComponent</text>
</g>
<!-- CreatorDetailsComponent&#45;&gt;ContentModule -->
<g id="edge9" class="edge">
<title>CreatorDetailsComponent&#45;&gt;ContentModule</title>
<path fill="none" stroke="black" d="M1034,-122.12C1034,-136.78 1034,-155 1034,-155 1034,-155 1132.73,-155 1132.73,-155"/>
<polygon fill="black" stroke="black" points="1132.73,-158.5 1142.73,-155 1132.73,-151.5 1132.73,-158.5"/>
</g>
<!-- CreatorsListComponent -->
<g id="node10" class="node">
<title>CreatorsListComponent</title>
<polygon fill="#ffffb3" stroke="black" points="934.03,-122 783.97,-122 783.97,-86 934.03,-86 934.03,-122"/>
<text text-anchor="middle" x="859" y="-99.8" font-family="Times,serif" font-size="14.00">CreatorsListComponent</text>
</g>
<!-- CreatorsListComponent&#45;&gt;ContentModule -->
<g id="edge10" class="edge">
<title>CreatorsListComponent&#45;&gt;ContentModule</title>
<path fill="none" stroke="black" d="M859,-122.01C859,-138.05 859,-159 859,-159 859,-159 1132.87,-159 1132.87,-159"/>
<polygon fill="black" stroke="black" points="1132.87,-162.5 1142.87,-159 1132.87,-155.5 1132.87,-162.5"/>
</g>
<!-- CreatorsPipe -->
<g id="node11" class="node">
<title>CreatorsPipe</title>
<polygon fill="#ffffb3" stroke="black" points="766.31,-122 677.69,-122 677.69,-86 766.31,-86 766.31,-122"/>
<text text-anchor="middle" x="722" y="-99.8" font-family="Times,serif" font-size="14.00">CreatorsPipe</text>
</g>
<!-- CreatorsPipe&#45;&gt;ContentModule -->
<g id="edge11" class="edge">
<title>CreatorsPipe&#45;&gt;ContentModule</title>
<path fill="none" stroke="black" d="M722,-122.02C722,-139.37 722,-163 722,-163 722,-163 1133.03,-163 1133.03,-163"/>
<polygon fill="black" stroke="black" points="1133.03,-166.5 1143.03,-163 1133.03,-159.5 1133.03,-166.5"/>
</g>
<!-- PricePipe -->
<g id="node12" class="node">
<title>PricePipe</title>
<polygon fill="#ffffb3" stroke="black" points="659.65,-122 590.35,-122 590.35,-86 659.65,-86 659.65,-122"/>
<text text-anchor="middle" x="625" y="-99.8" font-family="Times,serif" font-size="14.00">PricePipe</text>
</g>
<!-- PricePipe&#45;&gt;ContentModule -->
<g id="edge12" class="edge">
<title>PricePipe&#45;&gt;ContentModule</title>
<path fill="none" stroke="black" d="M625,-122.22C625,-140.83 625,-167 625,-167 625,-167 1132.91,-167 1132.91,-167"/>
<polygon fill="black" stroke="black" points="1132.91,-170.5 1142.91,-167 1132.91,-163.5 1132.91,-170.5"/>
</g>
<!-- SerieComponent -->
<g id="node13" class="node">
<title>SerieComponent</title>
<polygon fill="#ffffb3" stroke="black" points="572.1,-122 461.9,-122 461.9,-86 572.1,-86 572.1,-122"/>
<text text-anchor="middle" x="517" y="-99.8" font-family="Times,serif" font-size="14.00">SerieComponent</text>
</g>
<!-- SerieComponent&#45;&gt;ContentModule -->
<g id="edge13" class="edge">
<title>SerieComponent&#45;&gt;ContentModule</title>
<path fill="none" stroke="black" d="M517,-122.31C517,-142.15 517,-171 517,-171 517,-171 1132.92,-171 1132.92,-171"/>
<polygon fill="black" stroke="black" points="1132.92,-174.5 1142.92,-171 1132.92,-167.5 1132.92,-174.5"/>
</g>
<!-- SerieDetailsComponent -->
<g id="node14" class="node">
<title>SerieDetailsComponent</title>
<polygon fill="#ffffb3" stroke="black" points="443.75,-122 294.25,-122 294.25,-86 443.75,-86 443.75,-122"/>
<text text-anchor="middle" x="369" y="-99.8" font-family="Times,serif" font-size="14.00">SerieDetailsComponent</text>
</g>
<!-- SerieDetailsComponent&#45;&gt;ContentModule -->
<g id="edge14" class="edge">
<title>SerieDetailsComponent&#45;&gt;ContentModule</title>
<path fill="none" stroke="black" d="M369,-122.28C369,-143.32 369,-175 369,-175 369,-175 1133.02,-175 1133.02,-175"/>
<polygon fill="black" stroke="black" points="1133.02,-178.5 1143.02,-175 1133.02,-171.5 1133.02,-178.5"/>
</g>
<!-- SeriesListComponent -->
<g id="node15" class="node">
<title>SeriesListComponent</title>
<polygon fill="#ffffb3" stroke="black" points="275.82,-122 138.18,-122 138.18,-86 275.82,-86 275.82,-122"/>
<text text-anchor="middle" x="207" y="-99.8" font-family="Times,serif" font-size="14.00">SeriesListComponent</text>
</g>
<!-- SeriesListComponent&#45;&gt;ContentModule -->
<g id="edge15" class="edge">
<title>SeriesListComponent&#45;&gt;ContentModule</title>
<path fill="none" stroke="black" d="M207,-122.16C207,-144.35 207,-179 207,-179 207,-179 1132.93,-179 1132.93,-179"/>
<polygon fill="black" stroke="black" points="1132.93,-182.5 1142.93,-179 1132.93,-175.5 1132.93,-182.5"/>
</g>
<!-- TypeDataPipe -->
<g id="node16" class="node">
<title>TypeDataPipe</title>
<polygon fill="#ffffb3" stroke="black" points="120.08,-122 23.92,-122 23.92,-86 120.08,-86 120.08,-122"/>
<text text-anchor="middle" x="72" y="-99.8" font-family="Times,serif" font-size="14.00">TypeDataPipe</text>
</g>
<!-- TypeDataPipe&#45;&gt;ContentModule -->
<g id="edge16" class="edge">
<title>TypeDataPipe&#45;&gt;ContentModule</title>
<path fill="none" stroke="black" d="M72,-122.32C72,-145.66 72,-183 72,-183 72,-183 1133.09,-183 1133.09,-183"/>
<polygon fill="black" stroke="black" points="1133.09,-186.5 1143.09,-183 1133.09,-179.5 1133.09,-186.5"/>
</g>
<!-- ContentRoutingModule -->
<g id="node18" class="node">
<title>ContentRoutingModule</title>
<polygon fill="#8dd3c7" stroke="black" points="2595.5,-122 2592.5,-126 2571.5,-126 2568.5,-122 2446.5,-122 2446.5,-86 2595.5,-86 2595.5,-122"/>
<text text-anchor="middle" x="2521" y="-99.8" font-family="Times,serif" font-size="14.00">ContentRoutingModule</text>
</g>
<!-- ContentRoutingModule&#45;&gt;ContentModule -->
<g id="edge17" class="edge">
<title>ContentRoutingModule&#45;&gt;ContentModule</title>
<path fill="none" stroke="black" d="M2521,-122.32C2521,-145.66 2521,-183 2521,-183 2521,-183 1256.98,-183 1256.98,-183"/>
<polygon fill="black" stroke="black" points="1256.98,-179.5 1246.98,-183 1256.98,-186.5 1256.98,-179.5"/>
</g>
</g>
</svg>
